<?xml version="1.0" encoding="UTF-8" standalone="no"?>
<!DOCTYPE svg PUBLIC "-//W3C//DTD SVG 1.1//EN"
 "http://www.w3.org/Graphics/SVG/1.1/DTD/svg11.dtd">
<!-- Generated by graphviz version 2.43.0 (0)
 -->
<!-- Title: prufer Pages: 1 -->
<svg width="658pt" height="458pt"
 viewBox="0.00 0.00 658.00 458.00" xmlns="http://www.w3.org/2000/svg" xmlns:xlink="http://www.w3.org/1999/xlink">
<g id="graph0" class="graph" transform="scale(1 1) rotate(0) translate(4 454)">
<title>prufer</title>
<polygon fill="white" stroke="transparent" points="-4,4 -4,-454 654,-454 654,4 -4,4"/>
<!-- 0 -->
<g id="node1" class="node">
<title>0</title>
<polygon fill="none" stroke="purple" stroke-width="2" points="344,-306 341,-310 320,-310 317,-306 290,-306 290,-270 344,-270 344,-306"/>
<text text-anchor="middle" x="317" y="-284.3" font-family="times bold" font-size="14.00" fill="purple">0</text>
</g>
<!-- 1 -->
<g id="node2" class="node">
<title>1</title>
<polygon fill="none" stroke="purple" stroke-width="2" points="172,-234 169,-238 148,-238 145,-234 118,-234 118,-198 172,-198 172,-234"/>
<text text-anchor="middle" x="145" y="-212.3" font-family="times bold" font-size="14.00" fill="purple">1</text>
</g>
<!-- 17 -->
<g id="node18" class="node">
<title>17</title>
<polygon fill="none" stroke="orange" stroke-width="2" points="23,-153 0,-153 0,-135 26,-135 26,-150 23,-153"/>
<polyline fill="none" stroke="orange" stroke-width="2" points="23,-153 23,-150 "/>
<polyline fill="none" stroke="orange" stroke-width="2" points="26,-150 23,-150 "/>
<text text-anchor="middle" x="13" y="-137.8" font-family="times bold" font-size="9.00" fill="purple">17</text>
</g>
<!-- 1&#45;&gt;17 -->
<g id="edge6" class="edge">
<title>1&#45;&gt;17</title>
<path fill="none" stroke="black" d="M117.95,-203.86C95.17,-194.04 62.05,-178.71 35,-162 33.53,-161.09 32.04,-160.11 30.57,-159.08"/>
<polygon fill="black" stroke="black" points="32.64,-156.26 22.54,-153.07 28.45,-161.87 32.64,-156.26"/>
</g>
<!-- 20 -->
<g id="node21" class="node">
<title>20</title>
<polygon fill="none" stroke="orange" stroke-width="2" points="67,-153 44,-153 44,-135 70,-135 70,-150 67,-153"/>
<polyline fill="none" stroke="orange" stroke-width="2" points="67,-153 67,-150 "/>
<polyline fill="none" stroke="orange" stroke-width="2" points="70,-150 67,-150 "/>
<text text-anchor="middle" x="57" y="-137.8" font-family="times bold" font-size="9.00" fill="purple">20</text>
</g>
<!-- 1&#45;&gt;20 -->
<g id="edge9" class="edge">
<title>1&#45;&gt;20</title>
<path fill="none" stroke="black" d="M123.25,-197.7C108.41,-185.89 88.99,-170.45 75.02,-159.34"/>
<polygon fill="black" stroke="black" points="77.12,-156.53 67.12,-153.05 72.76,-162.01 77.12,-156.53"/>
</g>
<!-- 26 -->
<g id="node27" class="node">
<title>26</title>
<polygon fill="none" stroke="orange" stroke-width="2" points="111,-153 88,-153 88,-135 114,-135 114,-150 111,-153"/>
<polyline fill="none" stroke="orange" stroke-width="2" points="111,-153 111,-150 "/>
<polyline fill="none" stroke="orange" stroke-width="2" points="114,-150 111,-150 "/>
<text text-anchor="middle" x="101" y="-137.8" font-family="times bold" font-size="9.00" fill="purple">26</text>
</g>
<!-- 1&#45;&gt;26 -->
<g id="edge16" class="edge">
<title>1&#45;&gt;26</title>
<path fill="none" stroke="black" d="M134.12,-197.7C127.2,-186.67 118.27,-172.47 111.43,-161.59"/>
<polygon fill="black" stroke="black" points="114.34,-159.65 106.06,-153.05 108.42,-163.38 114.34,-159.65"/>
</g>
<!-- 28 -->
<g id="node29" class="node">
<title>28</title>
<polygon fill="none" stroke="orange" stroke-width="2" points="155,-153 132,-153 132,-135 158,-135 158,-150 155,-153"/>
<polyline fill="none" stroke="orange" stroke-width="2" points="155,-153 155,-150 "/>
<polyline fill="none" stroke="orange" stroke-width="2" points="158,-150 155,-150 "/>
<text text-anchor="middle" x="145" y="-137.8" font-family="times bold" font-size="9.00" fill="purple">28</text>
</g>
<!-- 1&#45;&gt;28 -->
<g id="edge19" class="edge">
<title>1&#45;&gt;28</title>
<path fill="none" stroke="black" d="M145,-197.7C145,-187.23 145,-173.9 145,-163.27"/>
<polygon fill="black" stroke="black" points="148.5,-163.05 145,-153.05 141.5,-163.05 148.5,-163.05"/>
</g>
<!-- 33 -->
<g id="node34" class="node">
<title>33</title>
<polygon fill="none" stroke="orange" stroke-width="2" points="199,-153 176,-153 176,-135 202,-135 202,-150 199,-153"/>
<polyline fill="none" stroke="orange" stroke-width="2" points="199,-153 199,-150 "/>
<polyline fill="none" stroke="orange" stroke-width="2" points="202,-150 199,-150 "/>
<text text-anchor="middle" x="189" y="-137.8" font-family="times bold" font-size="9.00" fill="purple">33</text>
</g>
<!-- 1&#45;&gt;33 -->
<g id="edge25" class="edge">
<title>1&#45;&gt;33</title>
<path fill="none" stroke="black" d="M155.88,-197.7C162.8,-186.67 171.73,-172.47 178.57,-161.59"/>
<polygon fill="black" stroke="black" points="181.58,-163.38 183.94,-153.05 175.66,-159.65 181.58,-163.38"/>
</g>
<!-- 37 -->
<g id="node38" class="node">
<title>37</title>
<polygon fill="none" stroke="orange" stroke-width="2" points="243,-153 220,-153 220,-135 246,-135 246,-150 243,-153"/>
<polyline fill="none" stroke="orange" stroke-width="2" points="243,-153 243,-150 "/>
<polyline fill="none" stroke="orange" stroke-width="2" points="246,-150 243,-150 "/>
<text text-anchor="middle" x="233" y="-137.8" font-family="times bold" font-size="9.00" fill="purple">37</text>
</g>
<!-- 1&#45;&gt;37 -->
<g id="edge33" class="edge">
<title>1&#45;&gt;37</title>
<path fill="none" stroke="black" d="M166.75,-197.7C181.59,-185.89 201.01,-170.45 214.98,-159.34"/>
<polygon fill="black" stroke="black" points="217.24,-162.01 222.88,-153.05 212.88,-156.53 217.24,-162.01"/>
</g>
<!-- 2 -->
<g id="node3" class="node">
<title>2</title>
<polygon fill="none" stroke="purple" stroke-width="2" points="389,-234 386,-238 365,-238 362,-234 335,-234 335,-198 389,-198 389,-234"/>
<text text-anchor="middle" x="362" y="-212.3" font-family="times bold" font-size="14.00" fill="purple">2</text>
</g>
<!-- 6 -->
<g id="node7" class="node">
<title>6</title>
<polygon fill="none" stroke="purple" stroke-width="2" points="318,-162 315,-166 294,-166 291,-162 264,-162 264,-126 318,-126 318,-162"/>
<text text-anchor="middle" x="291" y="-140.3" font-family="times bold" font-size="14.00" fill="purple">6</text>
</g>
<!-- 2&#45;&gt;6 -->
<g id="edge30" class="edge">
<title>2&#45;&gt;6</title>
<path fill="none" stroke="black" d="M344.45,-197.7C335.77,-189.14 325.14,-178.66 315.65,-169.3"/>
<polygon fill="black" stroke="black" points="317.93,-166.63 308.35,-162.1 313.01,-171.62 317.93,-166.63"/>
</g>
<!-- 10 -->
<g id="node11" class="node">
<title>10</title>
<polygon fill="none" stroke="purple" stroke-width="2" points="427,-162 424,-166 403,-166 400,-162 373,-162 373,-126 427,-126 427,-162"/>
<text text-anchor="middle" x="400" y="-140.3" font-family="times bold" font-size="14.00" fill="purple">10</text>
</g>
<!-- 2&#45;&gt;10 -->
<g id="edge21" class="edge">
<title>2&#45;&gt;10</title>
<path fill="none" stroke="black" d="M371.39,-197.7C375.76,-189.64 381.06,-179.89 385.9,-170.98"/>
<polygon fill="black" stroke="black" points="389.02,-172.56 390.71,-162.1 382.87,-169.22 389.02,-172.56"/>
</g>
<!-- 32 -->
<g id="node33" class="node">
<title>32</title>
<polygon fill="none" stroke="orange" stroke-width="2" points="468,-153 445,-153 445,-135 471,-135 471,-150 468,-153"/>
<polyline fill="none" stroke="orange" stroke-width="2" points="468,-153 468,-150 "/>
<polyline fill="none" stroke="orange" stroke-width="2" points="471,-150 468,-150 "/>
<text text-anchor="middle" x="458" y="-137.8" font-family="times bold" font-size="9.00" fill="purple">32</text>
</g>
<!-- 2&#45;&gt;32 -->
<g id="edge24" class="edge">
<title>2&#45;&gt;32</title>
<path fill="none" stroke="black" d="M386.49,-197.8C400.98,-187.53 419.65,-174.17 436,-162 437.21,-161.1 438.45,-160.17 439.7,-159.22"/>
<polygon fill="black" stroke="black" points="441.96,-161.9 447.76,-153.03 437.7,-156.35 441.96,-161.9"/>
</g>
<!-- 3 -->
<g id="node4" class="node">
<title>3</title>
<polygon fill="none" stroke="purple" stroke-width="2" points="94,-90 91,-94 70,-94 67,-90 40,-90 40,-54 94,-54 94,-90"/>
<text text-anchor="middle" x="67" y="-68.3" font-family="times bold" font-size="14.00" fill="purple">3</text>
</g>
<!-- 15 -->
<g id="node16" class="node">
<title>15</title>
<polygon fill="none" stroke="orange" stroke-width="2" points="36,-18 13,-18 13,0 39,0 39,-15 36,-18"/>
<polyline fill="none" stroke="orange" stroke-width="2" points="36,-18 36,-15 "/>
<polyline fill="none" stroke="orange" stroke-width="2" points="39,-15 36,-15 "/>
<text text-anchor="middle" x="26" y="-2.8" font-family="times bold" font-size="9.00" fill="purple">15</text>
</g>
<!-- 3&#45;&gt;15 -->
<g id="edge4" class="edge">
<title>3&#45;&gt;15</title>
<path fill="none" stroke="black" d="M55.36,-53.68C49.65,-45.19 42.8,-35 37.16,-26.6"/>
<polygon fill="black" stroke="black" points="39.9,-24.41 31.42,-18.06 34.09,-28.32 39.9,-24.41"/>
</g>
<!-- 27 -->
<g id="node28" class="node">
<title>27</title>
<polygon fill="none" stroke="orange" stroke-width="2" points="80,-18 57,-18 57,0 83,0 83,-15 80,-18"/>
<polyline fill="none" stroke="orange" stroke-width="2" points="80,-18 80,-15 "/>
<polyline fill="none" stroke="orange" stroke-width="2" points="83,-15 80,-15 "/>
<text text-anchor="middle" x="70" y="-2.8" font-family="times bold" font-size="9.00" fill="purple">27</text>
</g>
<!-- 3&#45;&gt;27 -->
<g id="edge17" class="edge">
<title>3&#45;&gt;27</title>
<path fill="none" stroke="black" d="M67.85,-53.68C68.24,-45.73 68.71,-36.31 69.1,-28.25"/>
<polygon fill="black" stroke="black" points="72.61,-28.22 69.6,-18.06 65.62,-27.88 72.61,-28.22"/>
</g>
<!-- 4 -->
<g id="node5" class="node">
<title>4</title>
<path fill="orange" stroke="purple" d="M554,-446.73C554,-448.53 541.9,-450 527,-450 512.1,-450 500,-448.53 500,-446.73 500,-446.73 500,-417.27 500,-417.27 500,-415.47 512.1,-414 527,-414 541.9,-414 554,-415.47 554,-417.27 554,-417.27 554,-446.73 554,-446.73"/>
<path fill="none" stroke="purple" d="M554,-446.73C554,-444.92 541.9,-443.45 527,-443.45 512.1,-443.45 500,-444.92 500,-446.73"/>
<text text-anchor="middle" x="527" y="-428.3" font-family="times bold" font-size="14.00" fill="purple">HDF5</text>
</g>
<!-- 5 -->
<g id="node6" class="node">
<title>5</title>
<polygon fill="none" stroke="purple" stroke-width="2" points="337,-378 334,-382 313,-382 310,-378 283,-378 283,-342 337,-342 337,-378"/>
<text text-anchor="middle" x="310" y="-356.3" font-family="times bold" font-size="14.00" fill="purple">5</text>
</g>
<!-- 4&#45;&gt;5 -->
<g id="edge36" class="edge">
<title>4&#45;&gt;5</title>
<path fill="none" stroke="black" d="M499.96,-422.28C461.27,-409.8 390.04,-386.82 346.65,-372.82"/>
<polygon fill="black" stroke="black" points="347.64,-369.46 337.04,-369.72 345.49,-376.12 347.64,-369.46"/>
</g>
<!-- 9 -->
<g id="node10" class="node">
<title>9</title>
<polygon fill="none" stroke="purple" stroke-width="2" points="474,-378 471,-382 450,-382 447,-378 420,-378 420,-342 474,-342 474,-378"/>
<text text-anchor="middle" x="447" y="-356.3" font-family="times bold" font-size="14.00" fill="purple">9</text>
</g>
<!-- 4&#45;&gt;9 -->
<g id="edge39" class="edge">
<title>4&#45;&gt;9</title>
<path fill="none" stroke="black" d="M508.04,-414.41C498,-405.63 485.49,-394.68 474.41,-384.99"/>
<polygon fill="black" stroke="black" points="476.49,-382.15 466.66,-378.2 471.88,-387.42 476.49,-382.15"/>
</g>
<!-- 30 -->
<g id="node31" class="node">
<title>30</title>
<polygon fill="none" stroke="orange" stroke-width="2" points="515,-369 492,-369 492,-351 518,-351 518,-366 515,-369"/>
<polyline fill="none" stroke="orange" stroke-width="2" points="515,-369 515,-366 "/>
<polyline fill="none" stroke="orange" stroke-width="2" points="518,-366 515,-366 "/>
<text text-anchor="middle" x="505" y="-353.8" font-family="times bold" font-size="9.00" fill="purple">30</text>
</g>
<!-- 4&#45;&gt;30 -->
<g id="edge22" class="edge">
<title>4&#45;&gt;30</title>
<path fill="none" stroke="black" d="M521.56,-413.7C518.2,-403.01 513.9,-389.33 510.53,-378.59"/>
<polygon fill="black" stroke="black" points="513.87,-377.54 507.53,-369.05 507.19,-379.64 513.87,-377.54"/>
</g>
<!-- 38 -->
<g id="node39" class="node">
<title>38</title>
<polygon fill="none" stroke="orange" stroke-width="2" points="559,-369 536,-369 536,-351 562,-351 562,-366 559,-369"/>
<polyline fill="none" stroke="orange" stroke-width="2" points="559,-369 559,-366 "/>
<polyline fill="none" stroke="orange" stroke-width="2" points="562,-366 559,-366 "/>
<text text-anchor="middle" x="549" y="-353.8" font-family="times bold" font-size="9.00" fill="purple">38</text>
</g>
<!-- 4&#45;&gt;38 -->
<g id="edge37" class="edge">
<title>4&#45;&gt;38</title>
<path fill="none" stroke="black" d="M532.44,-413.7C535.8,-403.01 540.1,-389.33 543.47,-378.59"/>
<polygon fill="black" stroke="black" points="546.81,-379.64 546.47,-369.05 540.13,-377.54 546.81,-379.64"/>
</g>
<!-- 40 -->
<g id="node41" class="node">
<title>40</title>
<polygon fill="none" stroke="orange" stroke-width="2" points="603,-369 580,-369 580,-351 606,-351 606,-366 603,-369"/>
<polyline fill="none" stroke="orange" stroke-width="2" points="603,-369 603,-366 "/>
<polyline fill="none" stroke="orange" stroke-width="2" points="606,-366 603,-366 "/>
<text text-anchor="middle" x="593" y="-353.8" font-family="times bold" font-size="9.00" fill="purple">40</text>
</g>
<!-- 4&#45;&gt;40 -->
<g id="edge40" class="edge">
<title>4&#45;&gt;40</title>
<path fill="none" stroke="black" d="M542.98,-414.05C553.78,-402.59 567.94,-387.58 578.44,-376.44"/>
<polygon fill="black" stroke="black" points="581.02,-378.81 585.33,-369.13 575.93,-374.01 581.02,-378.81"/>
</g>
<!-- 41 -->
<g id="node42" class="node">
<title>41</title>
<polygon fill="none" stroke="orange" stroke-width="2" points="647,-369 624,-369 624,-351 650,-351 650,-366 647,-369"/>
<polyline fill="none" stroke="orange" stroke-width="2" points="647,-369 647,-366 "/>
<polyline fill="none" stroke="orange" stroke-width="2" points="650,-366 647,-366 "/>
<text text-anchor="middle" x="637" y="-353.8" font-family="times bold" font-size="9.00" fill="purple">41</text>
</g>
<!-- 4&#45;&gt;41 -->
<g id="edge41" class="edge">
<title>4&#45;&gt;41</title>
<path fill="none" stroke="black" d="M554.08,-415.78C571.74,-405.59 595.13,-391.59 615,-378 616.24,-377.15 617.51,-376.25 618.78,-375.33"/>
<polygon fill="black" stroke="black" points="621.02,-378.03 626.89,-369.21 616.8,-372.45 621.02,-378.03"/>
</g>
<!-- 7 -->
<g id="node8" class="node">
<title>7</title>
<polygon fill="none" stroke="purple" stroke-width="2" points="264,-306 261,-310 240,-310 237,-306 210,-306 210,-270 264,-270 264,-306"/>
<text text-anchor="middle" x="237" y="-284.3" font-family="times bold" font-size="14.00" fill="purple">7</text>
</g>
<!-- 5&#45;&gt;7 -->
<g id="edge35" class="edge">
<title>5&#45;&gt;7</title>
<path fill="none" stroke="black" d="M291.96,-341.7C282.94,-333.05 271.88,-322.45 262.06,-313.03"/>
<polygon fill="black" stroke="black" points="264.48,-310.5 254.84,-306.1 259.63,-315.55 264.48,-310.5"/>
</g>
<!-- 6&#45;&gt;3 -->
<g id="edge18" class="edge">
<title>6&#45;&gt;3</title>
<path fill="none" stroke="black" d="M263.73,-129.4C260.82,-128.17 257.87,-127.01 255,-126 192.42,-104.08 170.5,-112.12 103.96,-89.94"/>
<polygon fill="black" stroke="black" points="104.86,-86.54 94.27,-86.6 102.59,-93.16 104.86,-86.54"/>
</g>
<!-- 8 -->
<g id="node9" class="node">
<title>8</title>
<polygon fill="none" stroke="purple" stroke-width="2" points="166,-90 163,-94 142,-94 139,-90 112,-90 112,-54 166,-54 166,-90"/>
<text text-anchor="middle" x="139" y="-68.3" font-family="times bold" font-size="14.00" fill="purple">8</text>
</g>
<!-- 6&#45;&gt;8 -->
<g id="edge12" class="edge">
<title>6&#45;&gt;8</title>
<path fill="none" stroke="black" d="M263.9,-130.14C260.9,-128.73 257.89,-127.33 255,-126 222.22,-110.89 211.92,-106.89 175.41,-90.15"/>
<polygon fill="black" stroke="black" points="176.65,-86.87 166.1,-85.86 173.72,-93.22 176.65,-86.87"/>
</g>
<!-- 11 -->
<g id="node12" class="node">
<title>11</title>
<polygon fill="none" stroke="purple" stroke-width="2" points="238,-90 235,-94 214,-94 211,-90 184,-90 184,-54 238,-54 238,-90"/>
<text text-anchor="middle" x="211" y="-68.3" font-family="times bold" font-size="14.00" fill="purple">11</text>
</g>
<!-- 6&#45;&gt;11 -->
<g id="edge27" class="edge">
<title>6&#45;&gt;11</title>
<path fill="none" stroke="black" d="M271.22,-125.7C261.25,-116.97 248.99,-106.24 238.14,-96.75"/>
<polygon fill="black" stroke="black" points="240.38,-94.06 230.55,-90.1 235.77,-99.32 240.38,-94.06"/>
</g>
<!-- 18 -->
<g id="node19" class="node">
<title>18</title>
<polygon fill="none" stroke="orange" stroke-width="2" points="279,-81 256,-81 256,-63 282,-63 282,-78 279,-81"/>
<polyline fill="none" stroke="orange" stroke-width="2" points="279,-81 279,-78 "/>
<polyline fill="none" stroke="orange" stroke-width="2" points="282,-78 279,-78 "/>
<text text-anchor="middle" x="269" y="-65.8" font-family="times bold" font-size="9.00" fill="purple">18</text>
</g>
<!-- 6&#45;&gt;18 -->
<g id="edge7" class="edge">
<title>6&#45;&gt;18</title>
<path fill="none" stroke="black" d="M285.56,-125.7C282.2,-115.01 277.9,-101.33 274.53,-90.59"/>
<polygon fill="black" stroke="black" points="277.87,-89.54 271.53,-81.05 271.19,-91.64 277.87,-89.54"/>
</g>
<!-- 21 -->
<g id="node22" class="node">
<title>21</title>
<polygon fill="none" stroke="orange" stroke-width="2" points="323,-81 300,-81 300,-63 326,-63 326,-78 323,-81"/>
<polyline fill="none" stroke="orange" stroke-width="2" points="323,-81 323,-78 "/>
<polyline fill="none" stroke="orange" stroke-width="2" points="326,-78 323,-78 "/>
<text text-anchor="middle" x="313" y="-65.8" font-family="times bold" font-size="9.00" fill="purple">21</text>
</g>
<!-- 6&#45;&gt;21 -->
<g id="edge10" class="edge">
<title>6&#45;&gt;21</title>
<path fill="none" stroke="black" d="M296.44,-125.7C299.8,-115.01 304.1,-101.33 307.47,-90.59"/>
<polygon fill="black" stroke="black" points="310.81,-91.64 310.47,-81.05 304.13,-89.54 310.81,-91.64"/>
</g>
<!-- 36 -->
<g id="node37" class="node">
<title>36</title>
<polygon fill="none" stroke="orange" stroke-width="2" points="367,-81 344,-81 344,-63 370,-63 370,-78 367,-81"/>
<polyline fill="none" stroke="orange" stroke-width="2" points="367,-81 367,-78 "/>
<polyline fill="none" stroke="orange" stroke-width="2" points="370,-78 367,-78 "/>
<text text-anchor="middle" x="357" y="-65.8" font-family="times bold" font-size="9.00" fill="purple">36</text>
</g>
<!-- 6&#45;&gt;36 -->
<g id="edge29" class="edge">
<title>6&#45;&gt;36</title>
<path fill="none" stroke="black" d="M307.31,-125.7C318.02,-114.34 331.91,-99.61 342.28,-88.61"/>
<polygon fill="black" stroke="black" points="345.1,-90.72 349.41,-81.05 340.01,-85.92 345.1,-90.72"/>
</g>
<!-- 7&#45;&gt;1 -->
<g id="edge34" class="edge">
<title>7&#45;&gt;1</title>
<path fill="none" stroke="black" d="M214.26,-269.7C202.56,-260.8 188.14,-249.82 175.49,-240.2"/>
<polygon fill="black" stroke="black" points="177.56,-237.37 167.48,-234.1 173.32,-242.94 177.56,-237.37"/>
</g>
<!-- 16 -->
<g id="node17" class="node">
<title>16</title>
<polygon fill="none" stroke="orange" stroke-width="2" points="243,-225 220,-225 220,-207 246,-207 246,-222 243,-225"/>
<polyline fill="none" stroke="orange" stroke-width="2" points="243,-225 243,-222 "/>
<polyline fill="none" stroke="orange" stroke-width="2" points="246,-222 243,-222 "/>
<text text-anchor="middle" x="233" y="-209.8" font-family="times bold" font-size="9.00" fill="purple">16</text>
</g>
<!-- 7&#45;&gt;16 -->
<g id="edge5" class="edge">
<title>7&#45;&gt;16</title>
<path fill="none" stroke="black" d="M236.01,-269.7C235.41,-259.23 234.65,-245.9 234.04,-235.27"/>
<polygon fill="black" stroke="black" points="237.52,-234.83 233.46,-225.05 230.54,-235.23 237.52,-234.83"/>
</g>
<!-- 25 -->
<g id="node26" class="node">
<title>25</title>
<polygon fill="none" stroke="orange" stroke-width="2" points="287,-225 264,-225 264,-207 290,-207 290,-222 287,-225"/>
<polyline fill="none" stroke="orange" stroke-width="2" points="287,-225 287,-222 "/>
<polyline fill="none" stroke="orange" stroke-width="2" points="290,-222 287,-222 "/>
<text text-anchor="middle" x="277" y="-209.8" font-family="times bold" font-size="9.00" fill="purple">25</text>
</g>
<!-- 7&#45;&gt;25 -->
<g id="edge15" class="edge">
<title>7&#45;&gt;25</title>
<path fill="none" stroke="black" d="M246.89,-269.7C253.12,-258.79 261.14,-244.76 267.33,-233.92"/>
<polygon fill="black" stroke="black" points="270.48,-235.47 272.4,-225.05 264.4,-231.99 270.48,-235.47"/>
</g>
<!-- 14 -->
<g id="node15" class="node">
<title>14</title>
<polygon fill="none" stroke="orange" stroke-width="2" points="130,-18 107,-18 107,0 133,0 133,-15 130,-18"/>
<polyline fill="none" stroke="orange" stroke-width="2" points="130,-18 130,-15 "/>
<polyline fill="none" stroke="orange" stroke-width="2" points="133,-15 130,-15 "/>
<text text-anchor="middle" x="120" y="-2.8" font-family="times bold" font-size="9.00" fill="purple">14</text>
</g>
<!-- 8&#45;&gt;14 -->
<g id="edge3" class="edge">
<title>8&#45;&gt;14</title>
<path fill="none" stroke="black" d="M133.61,-53.68C131.07,-45.55 128.06,-35.87 125.51,-27.69"/>
<polygon fill="black" stroke="black" points="128.83,-26.57 122.51,-18.06 122.14,-28.65 128.83,-26.57"/>
</g>
<!-- 22 -->
<g id="node23" class="node">
<title>22</title>
<polygon fill="none" stroke="orange" stroke-width="2" points="174,-18 151,-18 151,0 177,0 177,-15 174,-18"/>
<polyline fill="none" stroke="orange" stroke-width="2" points="174,-18 174,-15 "/>
<polyline fill="none" stroke="orange" stroke-width="2" points="177,-15 174,-15 "/>
<text text-anchor="middle" x="164" y="-2.8" font-family="times bold" font-size="9.00" fill="purple">22</text>
</g>
<!-- 8&#45;&gt;22 -->
<g id="edge11" class="edge">
<title>8&#45;&gt;22</title>
<path fill="none" stroke="black" d="M146.1,-53.68C149.47,-45.46 153.49,-35.66 156.86,-27.42"/>
<polygon fill="black" stroke="black" points="160.14,-28.65 160.69,-18.06 153.66,-25.99 160.14,-28.65"/>
</g>
<!-- 9&#45;&gt;0 -->
<g id="edge1" class="edge">
<title>9&#45;&gt;0</title>
<path fill="none" stroke="black" d="M419.75,-344.33C400.42,-333.92 374.28,-319.84 353.2,-308.49"/>
<polygon fill="black" stroke="black" points="354.68,-305.31 344.22,-303.65 351.36,-311.48 354.68,-305.31"/>
</g>
<!-- 12 -->
<g id="node13" class="node">
<title>12</title>
<polygon fill="none" stroke="purple" stroke-width="2" points="416,-306 413,-310 392,-310 389,-306 362,-306 362,-270 416,-270 416,-306"/>
<text text-anchor="middle" x="389" y="-284.3" font-family="times bold" font-size="14.00" fill="purple">12</text>
</g>
<!-- 9&#45;&gt;12 -->
<g id="edge32" class="edge">
<title>9&#45;&gt;12</title>
<path fill="none" stroke="black" d="M432.66,-341.7C425.71,-333.3 417.23,-323.07 409.6,-313.86"/>
<polygon fill="black" stroke="black" points="412.25,-311.57 403.17,-306.1 406.86,-316.04 412.25,-311.57"/>
</g>
<!-- 19 -->
<g id="node20" class="node">
<title>19</title>
<polygon fill="none" stroke="orange" stroke-width="2" points="457,-297 434,-297 434,-279 460,-279 460,-294 457,-297"/>
<polyline fill="none" stroke="orange" stroke-width="2" points="457,-297 457,-294 "/>
<polyline fill="none" stroke="orange" stroke-width="2" points="460,-294 457,-294 "/>
<text text-anchor="middle" x="447" y="-281.8" font-family="times bold" font-size="9.00" fill="purple">19</text>
</g>
<!-- 9&#45;&gt;19 -->
<g id="edge8" class="edge">
<title>9&#45;&gt;19</title>
<path fill="none" stroke="black" d="M447,-341.7C447,-331.23 447,-317.9 447,-307.27"/>
<polygon fill="black" stroke="black" points="450.5,-307.05 447,-297.05 443.5,-307.05 450.5,-307.05"/>
</g>
<!-- 23 -->
<g id="node24" class="node">
<title>23</title>
<polygon fill="none" stroke="orange" stroke-width="2" points="501,-297 478,-297 478,-279 504,-279 504,-294 501,-297"/>
<polyline fill="none" stroke="orange" stroke-width="2" points="501,-297 501,-294 "/>
<polyline fill="none" stroke="orange" stroke-width="2" points="504,-294 501,-294 "/>
<text text-anchor="middle" x="491" y="-281.8" font-family="times bold" font-size="9.00" fill="purple">23</text>
</g>
<!-- 9&#45;&gt;23 -->
<g id="edge13" class="edge">
<title>9&#45;&gt;23</title>
<path fill="none" stroke="black" d="M457.88,-341.7C464.8,-330.67 473.73,-316.47 480.57,-305.59"/>
<polygon fill="black" stroke="black" points="483.58,-307.38 485.94,-297.05 477.66,-303.65 483.58,-307.38"/>
</g>
<!-- 31 -->
<g id="node32" class="node">
<title>31</title>
<polygon fill="none" stroke="orange" stroke-width="2" points="545,-297 522,-297 522,-279 548,-279 548,-294 545,-297"/>
<polyline fill="none" stroke="orange" stroke-width="2" points="545,-297 545,-294 "/>
<polyline fill="none" stroke="orange" stroke-width="2" points="548,-294 545,-294 "/>
<text text-anchor="middle" x="535" y="-281.8" font-family="times bold" font-size="9.00" fill="purple">31</text>
</g>
<!-- 9&#45;&gt;31 -->
<g id="edge23" class="edge">
<title>9&#45;&gt;31</title>
<path fill="none" stroke="black" d="M468.75,-341.7C483.59,-329.89 503.01,-314.45 516.98,-303.34"/>
<polygon fill="black" stroke="black" points="519.24,-306.01 524.88,-297.05 514.88,-300.53 519.24,-306.01"/>
</g>
<!-- 39 -->
<g id="node40" class="node">
<title>39</title>
<polygon fill="none" stroke="orange" stroke-width="2" points="589,-297 566,-297 566,-279 592,-279 592,-294 589,-297"/>
<polyline fill="none" stroke="orange" stroke-width="2" points="589,-297 589,-294 "/>
<polyline fill="none" stroke="orange" stroke-width="2" points="592,-294 589,-294 "/>
<text text-anchor="middle" x="579" y="-281.8" font-family="times bold" font-size="9.00" fill="purple">39</text>
</g>
<!-- 9&#45;&gt;39 -->
<g id="edge38" class="edge">
<title>9&#45;&gt;39</title>
<path fill="none" stroke="black" d="M474.05,-346.14C505.36,-331.23 553.15,-308.38 557,-306 558.47,-305.09 559.96,-304.11 561.43,-303.08"/>
<polygon fill="black" stroke="black" points="563.55,-305.87 569.46,-297.07 559.36,-300.26 563.55,-305.87"/>
</g>
<!-- 13 -->
<g id="node14" class="node">
<title>13</title>
<polygon fill="none" stroke="purple" stroke-width="2" points="442,-90 439,-94 418,-94 415,-90 388,-90 388,-54 442,-54 442,-90"/>
<text text-anchor="middle" x="415" y="-68.3" font-family="times bold" font-size="14.00" fill="purple">13</text>
</g>
<!-- 10&#45;&gt;13 -->
<g id="edge2" class="edge">
<title>10&#45;&gt;13</title>
<path fill="none" stroke="black" d="M403.71,-125.7C405.36,-117.98 407.35,-108.71 409.19,-100.11"/>
<polygon fill="black" stroke="black" points="412.66,-100.62 411.33,-90.1 405.82,-99.15 412.66,-100.62"/>
</g>
<!-- 29 -->
<g id="node30" class="node">
<title>29</title>
<polygon fill="none" stroke="orange" stroke-width="2" points="483,-81 460,-81 460,-63 486,-63 486,-78 483,-81"/>
<polyline fill="none" stroke="orange" stroke-width="2" points="483,-81 483,-78 "/>
<polyline fill="none" stroke="orange" stroke-width="2" points="486,-78 483,-78 "/>
<text text-anchor="middle" x="473" y="-65.8" font-family="times bold" font-size="9.00" fill="purple">29</text>
</g>
<!-- 10&#45;&gt;29 -->
<g id="edge20" class="edge">
<title>10&#45;&gt;29</title>
<path fill="none" stroke="black" d="M418.04,-125.7C430.12,-114.12 445.85,-99.03 457.39,-87.97"/>
<polygon fill="black" stroke="black" points="459.81,-90.49 464.61,-81.05 454.97,-85.44 459.81,-90.49"/>
</g>
<!-- 34 -->
<g id="node35" class="node">
<title>34</title>
<polygon fill="none" stroke="orange" stroke-width="2" points="221,-18 198,-18 198,0 224,0 224,-15 221,-18"/>
<polyline fill="none" stroke="orange" stroke-width="2" points="221,-18 221,-15 "/>
<polyline fill="none" stroke="orange" stroke-width="2" points="224,-15 221,-15 "/>
<text text-anchor="middle" x="211" y="-2.8" font-family="times bold" font-size="9.00" fill="purple">34</text>
</g>
<!-- 11&#45;&gt;34 -->
<g id="edge26" class="edge">
<title>11&#45;&gt;34</title>
<path fill="none" stroke="black" d="M211,-53.68C211,-45.73 211,-36.31 211,-28.25"/>
<polygon fill="black" stroke="black" points="214.5,-28.06 211,-18.06 207.5,-28.06 214.5,-28.06"/>
</g>
<!-- 12&#45;&gt;2 -->
<g id="edge31" class="edge">
<title>12&#45;&gt;2</title>
<path fill="none" stroke="black" d="M382.33,-269.7C379.29,-261.81 375.62,-252.3 372.24,-243.55"/>
<polygon fill="black" stroke="black" points="375.46,-242.17 368.6,-234.1 368.93,-244.69 375.46,-242.17"/>
</g>
<!-- 24 -->
<g id="node25" class="node">
<title>24</title>
<polygon fill="none" stroke="orange" stroke-width="2" points="430,-225 407,-225 407,-207 433,-207 433,-222 430,-225"/>
<polyline fill="none" stroke="orange" stroke-width="2" points="430,-225 430,-222 "/>
<polyline fill="none" stroke="orange" stroke-width="2" points="433,-222 430,-222 "/>
<text text-anchor="middle" x="420" y="-209.8" font-family="times bold" font-size="9.00" fill="purple">24</text>
</g>
<!-- 12&#45;&gt;24 -->
<g id="edge14" class="edge">
<title>12&#45;&gt;24</title>
<path fill="none" stroke="black" d="M396.66,-269.7C401.45,-258.9 407.58,-245.05 412.36,-234.26"/>
<polygon fill="black" stroke="black" points="415.59,-235.61 416.44,-225.05 409.19,-232.77 415.59,-235.61"/>
</g>
<!-- 35 -->
<g id="node36" class="node">
<title>35</title>
<polygon fill="none" stroke="orange" stroke-width="2" points="474,-225 451,-225 451,-207 477,-207 477,-222 474,-225"/>
<polyline fill="none" stroke="orange" stroke-width="2" points="474,-225 474,-222 "/>
<polyline fill="none" stroke="orange" stroke-width="2" points="477,-222 474,-222 "/>
<text text-anchor="middle" x="464" y="-209.8" font-family="times bold" font-size="9.00" fill="purple">35</text>
</g>
<!-- 12&#45;&gt;35 -->
<g id="edge28" class="edge">
<title>12&#45;&gt;35</title>
<path fill="none" stroke="black" d="M407.54,-269.7C419.95,-258.12 436.11,-243.03 447.96,-231.97"/>
<polygon fill="black" stroke="black" points="450.46,-234.43 455.38,-225.05 445.68,-229.31 450.46,-234.43"/>
</g>
</g>
</svg>
