<?xml version="1.0" encoding="UTF-8" standalone="no"?>
<!DOCTYPE svg PUBLIC "-//W3C//DTD SVG 1.1//EN"
 "http://www.w3.org/Graphics/SVG/1.1/DTD/svg11.dtd">
<!-- Generated by graphviz version 2.43.0 (0)
 -->
<!-- Title: prufer Pages: 1 -->
<svg width="364pt" height="386pt"
 viewBox="0.00 0.00 364.00 386.00" xmlns="http://www.w3.org/2000/svg" xmlns:xlink="http://www.w3.org/1999/xlink">
<g id="graph0" class="graph" transform="scale(1 1) rotate(0) translate(4 382)">
<title>prufer</title>
<polygon fill="white" stroke="transparent" points="-4,4 -4,-382 360,-382 360,4 -4,4"/>
<!-- 1 -->
<g id="node1" class="node">
<title>1</title>
<polygon fill="none" stroke="purple" stroke-width="2" points="112,-162 109,-166 88,-166 85,-162 58,-162 58,-126 112,-126 112,-162"/>
<text text-anchor="middle" x="85" y="-140.3" font-family="times bold" font-size="14.00" fill="purple">1</text>
</g>
<!-- 2 -->
<g id="node2" class="node">
<title>2</title>
<polygon fill="none" stroke="purple" stroke-width="2" points="54,-90 51,-94 30,-94 27,-90 0,-90 0,-54 54,-54 54,-90"/>
<text text-anchor="middle" x="27" y="-68.3" font-family="times bold" font-size="14.00" fill="purple">2</text>
</g>
<!-- 1&#45;&gt;2 -->
<g id="edge3" class="edge">
<title>1&#45;&gt;2</title>
<path fill="none" stroke="black" d="M70.66,-125.7C63.71,-117.3 55.23,-107.07 47.6,-97.86"/>
<polygon fill="black" stroke="black" points="50.25,-95.57 41.17,-90.1 44.86,-100.04 50.25,-95.57"/>
</g>
<!-- 12 -->
<g id="node13" class="node">
<title>12</title>
<polygon fill="none" stroke="orange" stroke-width="2" points="95,-81 72,-81 72,-63 98,-63 98,-78 95,-81"/>
<polyline fill="none" stroke="orange" stroke-width="2" points="95,-81 95,-78 "/>
<polyline fill="none" stroke="orange" stroke-width="2" points="98,-78 95,-78 "/>
<text text-anchor="middle" x="85" y="-65.8" font-family="times bold" font-size="9.00" fill="purple">12</text>
</g>
<!-- 1&#45;&gt;12 -->
<g id="edge7" class="edge">
<title>1&#45;&gt;12</title>
<path fill="none" stroke="black" d="M85,-125.7C85,-115.23 85,-101.9 85,-91.27"/>
<polygon fill="black" stroke="black" points="88.5,-91.05 85,-81.05 81.5,-91.05 88.5,-91.05"/>
</g>
<!-- 19 -->
<g id="node20" class="node">
<title>19</title>
<polygon fill="none" stroke="orange" stroke-width="2" points="139,-81 116,-81 116,-63 142,-63 142,-78 139,-81"/>
<polyline fill="none" stroke="orange" stroke-width="2" points="139,-81 139,-78 "/>
<polyline fill="none" stroke="orange" stroke-width="2" points="142,-78 139,-78 "/>
<text text-anchor="middle" x="129" y="-65.8" font-family="times bold" font-size="9.00" fill="purple">19</text>
</g>
<!-- 1&#45;&gt;19 -->
<g id="edge16" class="edge">
<title>1&#45;&gt;19</title>
<path fill="none" stroke="black" d="M95.88,-125.7C102.8,-114.67 111.73,-100.47 118.57,-89.59"/>
<polygon fill="black" stroke="black" points="121.58,-91.38 123.94,-81.05 115.66,-87.65 121.58,-91.38"/>
</g>
<!-- 9 -->
<g id="node10" class="node">
<title>9</title>
<polygon fill="none" stroke="orange" stroke-width="2" points="34.5,-18 16.5,-18 16.5,0 37.5,0 37.5,-15 34.5,-18"/>
<polyline fill="none" stroke="orange" stroke-width="2" points="34.5,-18 34.5,-15 "/>
<polyline fill="none" stroke="orange" stroke-width="2" points="37.5,-15 34.5,-15 "/>
<text text-anchor="middle" x="27" y="-2.8" font-family="times bold" font-size="9.00" fill="purple">9</text>
</g>
<!-- 2&#45;&gt;9 -->
<g id="edge2" class="edge">
<title>2&#45;&gt;9</title>
<path fill="none" stroke="black" d="M27,-53.68C27,-45.73 27,-36.31 27,-28.25"/>
<polygon fill="black" stroke="black" points="30.5,-28.06 27,-18.06 23.5,-28.06 30.5,-28.06"/>
</g>
<!-- 3 -->
<g id="node3" class="node">
<title>3</title>
<polygon fill="none" stroke="purple" stroke-width="2" points="189,-306 186,-310 165,-310 162,-306 135,-306 135,-270 189,-270 189,-306"/>
<text text-anchor="middle" x="162" y="-284.3" font-family="times bold" font-size="14.00" fill="purple">3</text>
</g>
<!-- 4 -->
<g id="node4" class="node">
<title>4</title>
<polygon fill="none" stroke="purple" stroke-width="2" points="96,-234 93,-238 72,-238 69,-234 42,-234 42,-198 96,-198 96,-234"/>
<text text-anchor="middle" x="69" y="-212.3" font-family="times bold" font-size="14.00" fill="purple">4</text>
</g>
<!-- 3&#45;&gt;4 -->
<g id="edge5" class="edge">
<title>3&#45;&gt;4</title>
<path fill="none" stroke="black" d="M139.01,-269.7C127.19,-260.8 112.61,-249.82 99.82,-240.2"/>
<polygon fill="black" stroke="black" points="101.82,-237.32 91.72,-234.1 97.61,-242.91 101.82,-237.32"/>
</g>
<!-- 6 -->
<g id="node6" class="node">
<title>6</title>
<polygon fill="none" stroke="purple" stroke-width="2" points="189,-234 186,-238 165,-238 162,-234 135,-234 135,-198 189,-198 189,-234"/>
<text text-anchor="middle" x="162" y="-212.3" font-family="times bold" font-size="14.00" fill="purple">6</text>
</g>
<!-- 3&#45;&gt;6 -->
<g id="edge18" class="edge">
<title>3&#45;&gt;6</title>
<path fill="none" stroke="black" d="M162,-269.7C162,-261.98 162,-252.71 162,-244.11"/>
<polygon fill="black" stroke="black" points="165.5,-244.1 162,-234.1 158.5,-244.1 165.5,-244.1"/>
</g>
<!-- 7 -->
<g id="node7" class="node">
<title>7</title>
<polygon fill="none" stroke="purple" stroke-width="2" points="312,-234 309,-238 288,-238 285,-234 258,-234 258,-198 312,-198 312,-234"/>
<text text-anchor="middle" x="285" y="-212.3" font-family="times bold" font-size="14.00" fill="purple">7</text>
</g>
<!-- 3&#45;&gt;7 -->
<g id="edge12" class="edge">
<title>3&#45;&gt;7</title>
<path fill="none" stroke="black" d="M189.3,-271.46C206.89,-261.45 229.97,-248.32 249.05,-237.46"/>
<polygon fill="black" stroke="black" points="250.82,-240.48 257.78,-232.49 247.36,-234.4 250.82,-240.48"/>
</g>
<!-- 10 -->
<g id="node11" class="node">
<title>10</title>
<polygon fill="none" stroke="orange" stroke-width="2" points="37,-153 14,-153 14,-135 40,-135 40,-150 37,-153"/>
<polyline fill="none" stroke="orange" stroke-width="2" points="37,-153 37,-150 "/>
<polyline fill="none" stroke="orange" stroke-width="2" points="40,-150 37,-150 "/>
<text text-anchor="middle" x="27" y="-137.8" font-family="times bold" font-size="9.00" fill="purple">10</text>
</g>
<!-- 4&#45;&gt;10 -->
<g id="edge4" class="edge">
<title>4&#45;&gt;10</title>
<path fill="none" stroke="black" d="M58.62,-197.7C52.07,-186.79 43.66,-172.76 37.15,-161.92"/>
<polygon fill="black" stroke="black" points="39.97,-159.82 31.83,-153.05 33.97,-163.42 39.97,-159.82"/>
</g>
<!-- 5 -->
<g id="node5" class="node">
<title>5</title>
<path fill="orange" stroke="purple" d="M269,-374.73C269,-376.53 256.9,-378 242,-378 227.1,-378 215,-376.53 215,-374.73 215,-374.73 215,-345.27 215,-345.27 215,-343.47 227.1,-342 242,-342 256.9,-342 269,-343.47 269,-345.27 269,-345.27 269,-374.73 269,-374.73"/>
<path fill="none" stroke="purple" d="M269,-374.73C269,-372.92 256.9,-371.45 242,-371.45 227.1,-371.45 215,-372.92 215,-374.73"/>
<text text-anchor="middle" x="242" y="-356.3" font-family="times bold" font-size="14.00" fill="purple">HDF5</text>
</g>
<!-- 5&#45;&gt;3 -->
<g id="edge19" class="edge">
<title>5&#45;&gt;3</title>
<path fill="none" stroke="black" d="M223.04,-342.41C213,-333.63 200.49,-322.68 189.41,-312.99"/>
<polygon fill="black" stroke="black" points="191.49,-310.15 181.66,-306.2 186.88,-315.42 191.49,-310.15"/>
</g>
<!-- 16 -->
<g id="node17" class="node">
<title>16</title>
<polygon fill="none" stroke="orange" stroke-width="2" points="230,-297 207,-297 207,-279 233,-279 233,-294 230,-297"/>
<polyline fill="none" stroke="orange" stroke-width="2" points="230,-297 230,-294 "/>
<polyline fill="none" stroke="orange" stroke-width="2" points="233,-294 230,-294 "/>
<text text-anchor="middle" x="220" y="-281.8" font-family="times bold" font-size="9.00" fill="purple">16</text>
</g>
<!-- 5&#45;&gt;16 -->
<g id="edge13" class="edge">
<title>5&#45;&gt;16</title>
<path fill="none" stroke="black" d="M236.56,-341.7C233.2,-331.01 228.9,-317.33 225.53,-306.59"/>
<polygon fill="black" stroke="black" points="228.87,-305.54 222.53,-297.05 222.19,-307.64 228.87,-305.54"/>
</g>
<!-- 17 -->
<g id="node18" class="node">
<title>17</title>
<polygon fill="none" stroke="orange" stroke-width="2" points="274,-297 251,-297 251,-279 277,-279 277,-294 274,-297"/>
<polyline fill="none" stroke="orange" stroke-width="2" points="274,-297 274,-294 "/>
<polyline fill="none" stroke="orange" stroke-width="2" points="277,-294 274,-294 "/>
<text text-anchor="middle" x="264" y="-281.8" font-family="times bold" font-size="9.00" fill="purple">17</text>
</g>
<!-- 5&#45;&gt;17 -->
<g id="edge14" class="edge">
<title>5&#45;&gt;17</title>
<path fill="none" stroke="black" d="M247.44,-341.7C250.8,-331.01 255.1,-317.33 258.47,-306.59"/>
<polygon fill="black" stroke="black" points="261.81,-307.64 261.47,-297.05 255.13,-305.54 261.81,-307.64"/>
</g>
<!-- 20 -->
<g id="node21" class="node">
<title>20</title>
<polygon fill="none" stroke="orange" stroke-width="2" points="318,-297 295,-297 295,-279 321,-279 321,-294 318,-297"/>
<polyline fill="none" stroke="orange" stroke-width="2" points="318,-297 318,-294 "/>
<polyline fill="none" stroke="orange" stroke-width="2" points="321,-294 318,-294 "/>
<text text-anchor="middle" x="308" y="-281.8" font-family="times bold" font-size="9.00" fill="purple">20</text>
</g>
<!-- 5&#45;&gt;20 -->
<g id="edge20" class="edge">
<title>5&#45;&gt;20</title>
<path fill="none" stroke="black" d="M257.98,-342.05C268.78,-330.59 282.94,-315.58 293.44,-304.44"/>
<polygon fill="black" stroke="black" points="296.02,-306.81 300.33,-297.13 290.93,-302.01 296.02,-306.81"/>
</g>
<!-- 6&#45;&gt;1 -->
<g id="edge17" class="edge">
<title>6&#45;&gt;1</title>
<path fill="none" stroke="black" d="M142.97,-197.7C133.46,-189.05 121.79,-178.45 111.43,-169.03"/>
<polygon fill="black" stroke="black" points="113.57,-166.24 103.81,-162.1 108.86,-171.42 113.57,-166.24"/>
</g>
<!-- 0 -->
<g id="node9" class="node">
<title>0</title>
<polygon fill="none" stroke="orange" stroke-width="2" points="148.5,-153 130.5,-153 130.5,-135 151.5,-135 151.5,-150 148.5,-153"/>
<polyline fill="none" stroke="orange" stroke-width="2" points="148.5,-153 148.5,-150 "/>
<polyline fill="none" stroke="orange" stroke-width="2" points="151.5,-150 148.5,-150 "/>
<text text-anchor="middle" x="141" y="-137.8" font-family="times bold" font-size="9.00" fill="purple">0</text>
</g>
<!-- 6&#45;&gt;0 -->
<g id="edge1" class="edge">
<title>6&#45;&gt;0</title>
<path fill="none" stroke="black" d="M156.81,-197.7C153.64,-187.12 149.58,-173.62 146.38,-162.93"/>
<polygon fill="black" stroke="black" points="149.64,-161.62 143.41,-153.05 142.94,-163.63 149.64,-161.62"/>
</g>
<!-- 13 -->
<g id="node14" class="node">
<title>13</title>
<polygon fill="none" stroke="orange" stroke-width="2" points="193,-153 170,-153 170,-135 196,-135 196,-150 193,-153"/>
<polyline fill="none" stroke="orange" stroke-width="2" points="193,-153 193,-150 "/>
<polyline fill="none" stroke="orange" stroke-width="2" points="196,-150 193,-150 "/>
<text text-anchor="middle" x="183" y="-137.8" font-family="times bold" font-size="9.00" fill="purple">13</text>
</g>
<!-- 6&#45;&gt;13 -->
<g id="edge8" class="edge">
<title>6&#45;&gt;13</title>
<path fill="none" stroke="black" d="M167.19,-197.7C170.36,-187.12 174.42,-173.62 177.62,-162.93"/>
<polygon fill="black" stroke="black" points="181.06,-163.63 180.59,-153.05 174.36,-161.62 181.06,-163.63"/>
</g>
<!-- 18 -->
<g id="node19" class="node">
<title>18</title>
<polygon fill="none" stroke="orange" stroke-width="2" points="237,-153 214,-153 214,-135 240,-135 240,-150 237,-153"/>
<polyline fill="none" stroke="orange" stroke-width="2" points="237,-153 237,-150 "/>
<polyline fill="none" stroke="orange" stroke-width="2" points="240,-150 237,-150 "/>
<text text-anchor="middle" x="227" y="-137.8" font-family="times bold" font-size="9.00" fill="purple">18</text>
</g>
<!-- 6&#45;&gt;18 -->
<g id="edge15" class="edge">
<title>6&#45;&gt;18</title>
<path fill="none" stroke="black" d="M178.07,-197.7C188.61,-186.34 202.29,-171.61 212.5,-160.61"/>
<polygon fill="black" stroke="black" points="215.29,-162.76 219.53,-153.05 210.16,-157.99 215.29,-162.76"/>
</g>
<!-- 8 -->
<g id="node8" class="node">
<title>8</title>
<polygon fill="none" stroke="purple" stroke-width="2" points="312,-162 309,-166 288,-166 285,-162 258,-162 258,-126 312,-126 312,-162"/>
<text text-anchor="middle" x="285" y="-140.3" font-family="times bold" font-size="14.00" fill="purple">8</text>
</g>
<!-- 7&#45;&gt;8 -->
<g id="edge11" class="edge">
<title>7&#45;&gt;8</title>
<path fill="none" stroke="black" d="M285,-197.7C285,-189.98 285,-180.71 285,-172.11"/>
<polygon fill="black" stroke="black" points="288.5,-172.1 285,-162.1 281.5,-172.1 288.5,-172.1"/>
</g>
<!-- 11 -->
<g id="node12" class="node">
<title>11</title>
<polygon fill="none" stroke="orange" stroke-width="2" points="353,-153 330,-153 330,-135 356,-135 356,-150 353,-153"/>
<polyline fill="none" stroke="orange" stroke-width="2" points="353,-153 353,-150 "/>
<polyline fill="none" stroke="orange" stroke-width="2" points="356,-150 353,-150 "/>
<text text-anchor="middle" x="343" y="-137.8" font-family="times bold" font-size="9.00" fill="purple">11</text>
</g>
<!-- 7&#45;&gt;11 -->
<g id="edge6" class="edge">
<title>7&#45;&gt;11</title>
<path fill="none" stroke="black" d="M299.34,-197.7C308.65,-186.45 320.71,-171.9 329.8,-160.94"/>
<polygon fill="black" stroke="black" points="332.65,-162.98 336.33,-153.05 327.26,-158.51 332.65,-162.98"/>
</g>
<!-- 14 -->
<g id="node15" class="node">
<title>14</title>
<polygon fill="none" stroke="orange" stroke-width="2" points="273,-81 250,-81 250,-63 276,-63 276,-78 273,-81"/>
<polyline fill="none" stroke="orange" stroke-width="2" points="273,-81 273,-78 "/>
<polyline fill="none" stroke="orange" stroke-width="2" points="276,-78 273,-78 "/>
<text text-anchor="middle" x="263" y="-65.8" font-family="times bold" font-size="9.00" fill="purple">14</text>
</g>
<!-- 8&#45;&gt;14 -->
<g id="edge9" class="edge">
<title>8&#45;&gt;14</title>
<path fill="none" stroke="black" d="M279.56,-125.7C276.2,-115.01 271.9,-101.33 268.53,-90.59"/>
<polygon fill="black" stroke="black" points="271.87,-89.54 265.53,-81.05 265.19,-91.64 271.87,-89.54"/>
</g>
<!-- 15 -->
<g id="node16" class="node">
<title>15</title>
<polygon fill="none" stroke="orange" stroke-width="2" points="317,-81 294,-81 294,-63 320,-63 320,-78 317,-81"/>
<polyline fill="none" stroke="orange" stroke-width="2" points="317,-81 317,-78 "/>
<polyline fill="none" stroke="orange" stroke-width="2" points="320,-78 317,-78 "/>
<text text-anchor="middle" x="307" y="-65.8" font-family="times bold" font-size="9.00" fill="purple">15</text>
</g>
<!-- 8&#45;&gt;15 -->
<g id="edge10" class="edge">
<title>8&#45;&gt;15</title>
<path fill="none" stroke="black" d="M290.44,-125.7C293.8,-115.01 298.1,-101.33 301.47,-90.59"/>
<polygon fill="black" stroke="black" points="304.81,-91.64 304.47,-81.05 298.13,-89.54 304.81,-91.64"/>
</g>
</g>
</svg>
